<?xml version="1.0" encoding="utf-8" standalone="no"?>
<!DOCTYPE svg PUBLIC "-//W3C//DTD SVG 1.1//EN"
  "http://www.w3.org/Graphics/SVG/1.1/DTD/svg11.dtd">
<svg xmlns:xlink="http://www.w3.org/1999/xlink" width="576pt" height="360pt" viewBox="0 0 576 360" xmlns="http://www.w3.org/2000/svg" version="1.1">
 <metadata>
  <rdf:RDF xmlns:dc="http://purl.org/dc/elements/1.1/" xmlns:cc="http://creativecommons.org/ns#" xmlns:rdf="http://www.w3.org/1999/02/22-rdf-syntax-ns#">
   <cc:Work>
    <dc:type rdf:resource="http://purl.org/dc/dcmitype/StillImage"/>
    <dc:date>2025-08-22T23:34:03.449925</dc:date>
    <dc:format>image/svg+xml</dc:format>
    <dc:creator>
     <cc:Agent>
      <dc:title>Matplotlib v3.9.4, https://matplotlib.org/</dc:title>
     </cc:Agent>
    </dc:creator>
   </cc:Work>
  </rdf:RDF>
 </metadata>
 <defs>
  <style type="text/css">*{stroke-linejoin: round; stroke-linecap: butt}</style>
 </defs>
 <g id="figure_1">
  <g id="patch_1">
   <path d="M 0 360 
L 576 360 
L 576 0 
L 0 0 
z
" style="fill: #ffffff"/>
  </g>
  <g id="axes_1">
   <g id="patch_2">
    <path d="M 47.81 318.04 
L 565.2 318.04 
L 565.2 25.44 
L 47.81 25.44 
z
" style="fill: #ffffff"/>
   </g>
   <g id="matplotlib.axis_1">
    <g id="xtick_1">
     <g id="line2d_1">
      <path d="M 55.108605 318.04 
L 55.108605 25.44 
" clip-path="url(#p6e3bc6ec80)" style="fill: none; stroke: #b0b0b0; stroke-width: 0.8; stroke-linecap: square"/>
     </g>
     <g id="line2d_2">
      <defs>
       <path id="mabfed42e3b" d="M 0 0 
L 0 3.5 
" style="stroke: #000000; stroke-width: 0.8"/>
      </defs>
      <g>
       <use xlink:href="#mabfed42e3b" x="55.108605" y="318.04" style="stroke: #000000; stroke-width: 0.8"/>
      </g>
     </g>
     <g id="text_1">
      <!-- 0 -->
      <g transform="translate(51.927355 332.638438) scale(0.1 -0.1)">
       <defs>
        <path id="DejaVuSans-30" d="M 2034 4250 
Q 1547 4250 1301 3770 
Q 1056 3291 1056 2328 
Q 1056 1369 1301 889 
Q 1547 409 2034 409 
Q 2525 409 2770 889 
Q 3016 1369 3016 2328 
Q 3016 3291 2770 3770 
Q 2525 4250 2034 4250 
z
M 2034 4750 
Q 2819 4750 3233 4129 
Q 3647 3509 3647 2328 
Q 3647 1150 3233 529 
Q 2819 -91 2034 -91 
Q 1250 -91 836 529 
Q 422 1150 422 2328 
Q 422 3509 836 4129 
Q 1250 4750 2034 4750 
z
" transform="scale(0.015625)"/>
       </defs>
       <use xlink:href="#DejaVuSans-30"/>
      </g>
     </g>
    </g>
    <g id="xtick_2">
     <g id="line2d_3">
      <path d="M 136.204216 318.04 
L 136.204216 25.44 
" clip-path="url(#p6e3bc6ec80)" style="fill: none; stroke: #b0b0b0; stroke-width: 0.8; stroke-linecap: square"/>
     </g>
     <g id="line2d_4">
      <g>
       <use xlink:href="#mabfed42e3b" x="136.204216" y="318.04" style="stroke: #000000; stroke-width: 0.8"/>
      </g>
     </g>
     <g id="text_2">
      <!-- 5 -->
      <g transform="translate(133.022966 332.638438) scale(0.1 -0.1)">
       <defs>
        <path id="DejaVuSans-35" d="M 691 4666 
L 3169 4666 
L 3169 4134 
L 1269 4134 
L 1269 2991 
Q 1406 3038 1543 3061 
Q 1681 3084 1819 3084 
Q 2600 3084 3056 2656 
Q 3513 2228 3513 1497 
Q 3513 744 3044 326 
Q 2575 -91 1722 -91 
Q 1428 -91 1123 -41 
Q 819 9 494 109 
L 494 744 
Q 775 591 1075 516 
Q 1375 441 1709 441 
Q 2250 441 2565 725 
Q 2881 1009 2881 1497 
Q 2881 1984 2565 2268 
Q 2250 2553 1709 2553 
Q 1456 2553 1204 2497 
Q 953 2441 691 2322 
L 691 4666 
z
" transform="scale(0.015625)"/>
       </defs>
       <use xlink:href="#DejaVuSans-35"/>
      </g>
     </g>
    </g>
    <g id="xtick_3">
     <g id="line2d_5">
      <path d="M 217.299828 318.04 
L 217.299828 25.44 
" clip-path="url(#p6e3bc6ec80)" style="fill: none; stroke: #b0b0b0; stroke-width: 0.8; stroke-linecap: square"/>
     </g>
     <g id="line2d_6">
      <g>
       <use xlink:href="#mabfed42e3b" x="217.299828" y="318.04" style="stroke: #000000; stroke-width: 0.8"/>
      </g>
     </g>
     <g id="text_3">
      <!-- 10 -->
      <g transform="translate(210.937328 332.638438) scale(0.1 -0.1)">
       <defs>
        <path id="DejaVuSans-31" d="M 794 531 
L 1825 531 
L 1825 4091 
L 703 3866 
L 703 4441 
L 1819 4666 
L 2450 4666 
L 2450 531 
L 3481 531 
L 3481 0 
L 794 0 
L 794 531 
z
" transform="scale(0.015625)"/>
       </defs>
       <use xlink:href="#DejaVuSans-31"/>
       <use xlink:href="#DejaVuSans-30" x="63.623047"/>
      </g>
     </g>
    </g>
    <g id="xtick_4">
     <g id="line2d_7">
      <path d="M 298.395439 318.04 
L 298.395439 25.44 
" clip-path="url(#p6e3bc6ec80)" style="fill: none; stroke: #b0b0b0; stroke-width: 0.8; stroke-linecap: square"/>
     </g>
     <g id="line2d_8">
      <g>
       <use xlink:href="#mabfed42e3b" x="298.395439" y="318.04" style="stroke: #000000; stroke-width: 0.8"/>
      </g>
     </g>
     <g id="text_4">
      <!-- 15 -->
      <g transform="translate(292.032939 332.638438) scale(0.1 -0.1)">
       <use xlink:href="#DejaVuSans-31"/>
       <use xlink:href="#DejaVuSans-35" x="63.623047"/>
      </g>
     </g>
    </g>
    <g id="xtick_5">
     <g id="line2d_9">
      <path d="M 379.49105 318.04 
L 379.49105 25.44 
" clip-path="url(#p6e3bc6ec80)" style="fill: none; stroke: #b0b0b0; stroke-width: 0.8; stroke-linecap: square"/>
     </g>
     <g id="line2d_10">
      <g>
       <use xlink:href="#mabfed42e3b" x="379.49105" y="318.04" style="stroke: #000000; stroke-width: 0.8"/>
      </g>
     </g>
     <g id="text_5">
      <!-- 20 -->
      <g transform="translate(373.12855 332.638438) scale(0.1 -0.1)">
       <defs>
        <path id="DejaVuSans-32" d="M 1228 531 
L 3431 531 
L 3431 0 
L 469 0 
L 469 531 
Q 828 903 1448 1529 
Q 2069 2156 2228 2338 
Q 2531 2678 2651 2914 
Q 2772 3150 2772 3378 
Q 2772 3750 2511 3984 
Q 2250 4219 1831 4219 
Q 1534 4219 1204 4116 
Q 875 4013 500 3803 
L 500 4441 
Q 881 4594 1212 4672 
Q 1544 4750 1819 4750 
Q 2544 4750 2975 4387 
Q 3406 4025 3406 3419 
Q 3406 3131 3298 2873 
Q 3191 2616 2906 2266 
Q 2828 2175 2409 1742 
Q 1991 1309 1228 531 
z
" transform="scale(0.015625)"/>
       </defs>
       <use xlink:href="#DejaVuSans-32"/>
       <use xlink:href="#DejaVuSans-30" x="63.623047"/>
      </g>
     </g>
    </g>
    <g id="xtick_6">
     <g id="line2d_11">
      <path d="M 460.586661 318.04 
L 460.586661 25.44 
" clip-path="url(#p6e3bc6ec80)" style="fill: none; stroke: #b0b0b0; stroke-width: 0.8; stroke-linecap: square"/>
     </g>
     <g id="line2d_12">
      <g>
       <use xlink:href="#mabfed42e3b" x="460.586661" y="318.04" style="stroke: #000000; stroke-width: 0.8"/>
      </g>
     </g>
     <g id="text_6">
      <!-- 25 -->
      <g transform="translate(454.224161 332.638438) scale(0.1 -0.1)">
       <use xlink:href="#DejaVuSans-32"/>
       <use xlink:href="#DejaVuSans-35" x="63.623047"/>
      </g>
     </g>
    </g>
    <g id="xtick_7">
     <g id="line2d_13">
      <path d="M 541.682273 318.04 
L 541.682273 25.44 
" clip-path="url(#p6e3bc6ec80)" style="fill: none; stroke: #b0b0b0; stroke-width: 0.8; stroke-linecap: square"/>
     </g>
     <g id="line2d_14">
      <g>
       <use xlink:href="#mabfed42e3b" x="541.682273" y="318.04" style="stroke: #000000; stroke-width: 0.8"/>
      </g>
     </g>
     <g id="text_7">
      <!-- 30 -->
      <g transform="translate(535.319773 332.638438) scale(0.1 -0.1)">
       <defs>
        <path id="DejaVuSans-33" d="M 2597 2516 
Q 3050 2419 3304 2112 
Q 3559 1806 3559 1356 
Q 3559 666 3084 287 
Q 2609 -91 1734 -91 
Q 1441 -91 1130 -33 
Q 819 25 488 141 
L 488 750 
Q 750 597 1062 519 
Q 1375 441 1716 441 
Q 2309 441 2620 675 
Q 2931 909 2931 1356 
Q 2931 1769 2642 2001 
Q 2353 2234 1838 2234 
L 1294 2234 
L 1294 2753 
L 1863 2753 
Q 2328 2753 2575 2939 
Q 2822 3125 2822 3475 
Q 2822 3834 2567 4026 
Q 2313 4219 1838 4219 
Q 1578 4219 1281 4162 
Q 984 4106 628 3988 
L 628 4550 
Q 988 4650 1302 4700 
Q 1616 4750 1894 4750 
Q 2613 4750 3031 4423 
Q 3450 4097 3450 3541 
Q 3450 3153 3228 2886 
Q 3006 2619 2597 2516 
z
" transform="scale(0.015625)"/>
       </defs>
       <use xlink:href="#DejaVuSans-33"/>
       <use xlink:href="#DejaVuSans-30" x="63.623047"/>
      </g>
     </g>
    </g>
    <g id="text_8">
     <!-- Epoch -->
     <g transform="translate(291.194062 346.316563) scale(0.1 -0.1)">
      <defs>
       <path id="DejaVuSans-45" d="M 628 4666 
L 3578 4666 
L 3578 4134 
L 1259 4134 
L 1259 2753 
L 3481 2753 
L 3481 2222 
L 1259 2222 
L 1259 531 
L 3634 531 
L 3634 0 
L 628 0 
L 628 4666 
z
" transform="scale(0.015625)"/>
       <path id="DejaVuSans-70" d="M 1159 525 
L 1159 -1331 
L 581 -1331 
L 581 3500 
L 1159 3500 
L 1159 2969 
Q 1341 3281 1617 3432 
Q 1894 3584 2278 3584 
Q 2916 3584 3314 3078 
Q 3713 2572 3713 1747 
Q 3713 922 3314 415 
Q 2916 -91 2278 -91 
Q 1894 -91 1617 61 
Q 1341 213 1159 525 
z
M 3116 1747 
Q 3116 2381 2855 2742 
Q 2594 3103 2138 3103 
Q 1681 3103 1420 2742 
Q 1159 2381 1159 1747 
Q 1159 1113 1420 752 
Q 1681 391 2138 391 
Q 2594 391 2855 752 
Q 3116 1113 3116 1747 
z
" transform="scale(0.015625)"/>
       <path id="DejaVuSans-6f" d="M 1959 3097 
Q 1497 3097 1228 2736 
Q 959 2375 959 1747 
Q 959 1119 1226 758 
Q 1494 397 1959 397 
Q 2419 397 2687 759 
Q 2956 1122 2956 1747 
Q 2956 2369 2687 2733 
Q 2419 3097 1959 3097 
z
M 1959 3584 
Q 2709 3584 3137 3096 
Q 3566 2609 3566 1747 
Q 3566 888 3137 398 
Q 2709 -91 1959 -91 
Q 1206 -91 779 398 
Q 353 888 353 1747 
Q 353 2609 779 3096 
Q 1206 3584 1959 3584 
z
" transform="scale(0.015625)"/>
       <path id="DejaVuSans-63" d="M 3122 3366 
L 3122 2828 
Q 2878 2963 2633 3030 
Q 2388 3097 2138 3097 
Q 1578 3097 1268 2742 
Q 959 2388 959 1747 
Q 959 1106 1268 751 
Q 1578 397 2138 397 
Q 2388 397 2633 464 
Q 2878 531 3122 666 
L 3122 134 
Q 2881 22 2623 -34 
Q 2366 -91 2075 -91 
Q 1284 -91 818 406 
Q 353 903 353 1747 
Q 353 2603 823 3093 
Q 1294 3584 2113 3584 
Q 2378 3584 2631 3529 
Q 2884 3475 3122 3366 
z
" transform="scale(0.015625)"/>
       <path id="DejaVuSans-68" d="M 3513 2113 
L 3513 0 
L 2938 0 
L 2938 2094 
Q 2938 2591 2744 2837 
Q 2550 3084 2163 3084 
Q 1697 3084 1428 2787 
Q 1159 2491 1159 1978 
L 1159 0 
L 581 0 
L 581 4863 
L 1159 4863 
L 1159 2956 
Q 1366 3272 1645 3428 
Q 1925 3584 2291 3584 
Q 2894 3584 3203 3211 
Q 3513 2838 3513 2113 
z
" transform="scale(0.015625)"/>
      </defs>
      <use xlink:href="#DejaVuSans-45"/>
      <use xlink:href="#DejaVuSans-70" x="63.183594"/>
      <use xlink:href="#DejaVuSans-6f" x="126.660156"/>
      <use xlink:href="#DejaVuSans-63" x="187.841797"/>
      <use xlink:href="#DejaVuSans-68" x="242.822266"/>
     </g>
    </g>
   </g>
   <g id="matplotlib.axis_2">
    <g id="ytick_1">
     <g id="line2d_15">
      <path d="M 47.81 316.331844 
L 565.2 316.331844 
" clip-path="url(#p6e3bc6ec80)" style="fill: none; stroke: #b0b0b0; stroke-width: 0.8; stroke-linecap: square"/>
     </g>
     <g id="line2d_16">
      <defs>
       <path id="me50b336024" d="M 0 0 
L -3.5 0 
" style="stroke: #000000; stroke-width: 0.8"/>
      </defs>
      <g>
       <use xlink:href="#me50b336024" x="47.81" y="316.331844" style="stroke: #000000; stroke-width: 0.8"/>
      </g>
     </g>
     <g id="text_9">
      <!-- 0.1 -->
      <g transform="translate(24.906875 320.131063) scale(0.1 -0.1)">
       <defs>
        <path id="DejaVuSans-2e" d="M 684 794 
L 1344 794 
L 1344 0 
L 684 0 
L 684 794 
z
" transform="scale(0.015625)"/>
       </defs>
       <use xlink:href="#DejaVuSans-30"/>
       <use xlink:href="#DejaVuSans-2e" x="63.623047"/>
       <use xlink:href="#DejaVuSans-31" x="95.410156"/>
      </g>
     </g>
    </g>
    <g id="ytick_2">
     <g id="line2d_17">
      <path d="M 47.81 273.12889 
L 565.2 273.12889 
" clip-path="url(#p6e3bc6ec80)" style="fill: none; stroke: #b0b0b0; stroke-width: 0.8; stroke-linecap: square"/>
     </g>
     <g id="line2d_18">
      <g>
       <use xlink:href="#me50b336024" x="47.81" y="273.12889" style="stroke: #000000; stroke-width: 0.8"/>
      </g>
     </g>
     <g id="text_10">
      <!-- 0.2 -->
      <g transform="translate(24.906875 276.928109) scale(0.1 -0.1)">
       <use xlink:href="#DejaVuSans-30"/>
       <use xlink:href="#DejaVuSans-2e" x="63.623047"/>
       <use xlink:href="#DejaVuSans-32" x="95.410156"/>
      </g>
     </g>
    </g>
    <g id="ytick_3">
     <g id="line2d_19">
      <path d="M 47.81 229.925937 
L 565.2 229.925937 
" clip-path="url(#p6e3bc6ec80)" style="fill: none; stroke: #b0b0b0; stroke-width: 0.8; stroke-linecap: square"/>
     </g>
     <g id="line2d_20">
      <g>
       <use xlink:href="#me50b336024" x="47.81" y="229.925937" style="stroke: #000000; stroke-width: 0.8"/>
      </g>
     </g>
     <g id="text_11">
      <!-- 0.3 -->
      <g transform="translate(24.906875 233.725155) scale(0.1 -0.1)">
       <use xlink:href="#DejaVuSans-30"/>
       <use xlink:href="#DejaVuSans-2e" x="63.623047"/>
       <use xlink:href="#DejaVuSans-33" x="95.410156"/>
      </g>
     </g>
    </g>
    <g id="ytick_4">
     <g id="line2d_21">
      <path d="M 47.81 186.722983 
L 565.2 186.722983 
" clip-path="url(#p6e3bc6ec80)" style="fill: none; stroke: #b0b0b0; stroke-width: 0.8; stroke-linecap: square"/>
     </g>
     <g id="line2d_22">
      <g>
       <use xlink:href="#me50b336024" x="47.81" y="186.722983" style="stroke: #000000; stroke-width: 0.8"/>
      </g>
     </g>
     <g id="text_12">
      <!-- 0.4 -->
      <g transform="translate(24.906875 190.522201) scale(0.1 -0.1)">
       <defs>
        <path id="DejaVuSans-34" d="M 2419 4116 
L 825 1625 
L 2419 1625 
L 2419 4116 
z
M 2253 4666 
L 3047 4666 
L 3047 1625 
L 3713 1625 
L 3713 1100 
L 3047 1100 
L 3047 0 
L 2419 0 
L 2419 1100 
L 313 1100 
L 313 1709 
L 2253 4666 
z
" transform="scale(0.015625)"/>
       </defs>
       <use xlink:href="#DejaVuSans-30"/>
       <use xlink:href="#DejaVuSans-2e" x="63.623047"/>
       <use xlink:href="#DejaVuSans-34" x="95.410156"/>
      </g>
     </g>
    </g>
    <g id="ytick_5">
     <g id="line2d_23">
      <path d="M 47.81 143.520029 
L 565.2 143.520029 
" clip-path="url(#p6e3bc6ec80)" style="fill: none; stroke: #b0b0b0; stroke-width: 0.8; stroke-linecap: square"/>
     </g>
     <g id="line2d_24">
      <g>
       <use xlink:href="#me50b336024" x="47.81" y="143.520029" style="stroke: #000000; stroke-width: 0.8"/>
      </g>
     </g>
     <g id="text_13">
      <!-- 0.5 -->
      <g transform="translate(24.906875 147.319247) scale(0.1 -0.1)">
       <use xlink:href="#DejaVuSans-30"/>
       <use xlink:href="#DejaVuSans-2e" x="63.623047"/>
       <use xlink:href="#DejaVuSans-35" x="95.410156"/>
      </g>
     </g>
    </g>
    <g id="ytick_6">
     <g id="line2d_25">
      <path d="M 47.81 100.317075 
L 565.2 100.317075 
" clip-path="url(#p6e3bc6ec80)" style="fill: none; stroke: #b0b0b0; stroke-width: 0.8; stroke-linecap: square"/>
     </g>
     <g id="line2d_26">
      <g>
       <use xlink:href="#me50b336024" x="47.81" y="100.317075" style="stroke: #000000; stroke-width: 0.8"/>
      </g>
     </g>
     <g id="text_14">
      <!-- 0.6 -->
      <g transform="translate(24.906875 104.116294) scale(0.1 -0.1)">
       <defs>
        <path id="DejaVuSans-36" d="M 2113 2584 
Q 1688 2584 1439 2293 
Q 1191 2003 1191 1497 
Q 1191 994 1439 701 
Q 1688 409 2113 409 
Q 2538 409 2786 701 
Q 3034 994 3034 1497 
Q 3034 2003 2786 2293 
Q 2538 2584 2113 2584 
z
M 3366 4563 
L 3366 3988 
Q 3128 4100 2886 4159 
Q 2644 4219 2406 4219 
Q 1781 4219 1451 3797 
Q 1122 3375 1075 2522 
Q 1259 2794 1537 2939 
Q 1816 3084 2150 3084 
Q 2853 3084 3261 2657 
Q 3669 2231 3669 1497 
Q 3669 778 3244 343 
Q 2819 -91 2113 -91 
Q 1303 -91 875 529 
Q 447 1150 447 2328 
Q 447 3434 972 4092 
Q 1497 4750 2381 4750 
Q 2619 4750 2861 4703 
Q 3103 4656 3366 4563 
z
" transform="scale(0.015625)"/>
       </defs>
       <use xlink:href="#DejaVuSans-30"/>
       <use xlink:href="#DejaVuSans-2e" x="63.623047"/>
       <use xlink:href="#DejaVuSans-36" x="95.410156"/>
      </g>
     </g>
    </g>
    <g id="ytick_7">
     <g id="line2d_27">
      <path d="M 47.81 57.114121 
L 565.2 57.114121 
" clip-path="url(#p6e3bc6ec80)" style="fill: none; stroke: #b0b0b0; stroke-width: 0.8; stroke-linecap: square"/>
     </g>
     <g id="line2d_28">
      <g>
       <use xlink:href="#me50b336024" x="47.81" y="57.114121" style="stroke: #000000; stroke-width: 0.8"/>
      </g>
     </g>
     <g id="text_15">
      <!-- 0.7 -->
      <g transform="translate(24.906875 60.91334) scale(0.1 -0.1)">
       <defs>
        <path id="DejaVuSans-37" d="M 525 4666 
L 3525 4666 
L 3525 4397 
L 1831 0 
L 1172 0 
L 2766 4134 
L 525 4134 
L 525 4666 
z
" transform="scale(0.015625)"/>
       </defs>
       <use xlink:href="#DejaVuSans-30"/>
       <use xlink:href="#DejaVuSans-2e" x="63.623047"/>
       <use xlink:href="#DejaVuSans-37" x="95.410156"/>
      </g>
     </g>
    </g>
    <g id="text_16">
     <!-- Training Loss -->
     <g transform="translate(18.827188 204.022031) rotate(-90) scale(0.1 -0.1)">
      <defs>
       <path id="DejaVuSans-54" d="M -19 4666 
L 3928 4666 
L 3928 4134 
L 2272 4134 
L 2272 0 
L 1638 0 
L 1638 4134 
L -19 4134 
L -19 4666 
z
" transform="scale(0.015625)"/>
       <path id="DejaVuSans-72" d="M 2631 2963 
Q 2534 3019 2420 3045 
Q 2306 3072 2169 3072 
Q 1681 3072 1420 2755 
Q 1159 2438 1159 1844 
L 1159 0 
L 581 0 
L 581 3500 
L 1159 3500 
L 1159 2956 
Q 1341 3275 1631 3429 
Q 1922 3584 2338 3584 
Q 2397 3584 2469 3576 
Q 2541 3569 2628 3553 
L 2631 2963 
z
" transform="scale(0.015625)"/>
       <path id="DejaVuSans-61" d="M 2194 1759 
Q 1497 1759 1228 1600 
Q 959 1441 959 1056 
Q 959 750 1161 570 
Q 1363 391 1709 391 
Q 2188 391 2477 730 
Q 2766 1069 2766 1631 
L 2766 1759 
L 2194 1759 
z
M 3341 1997 
L 3341 0 
L 2766 0 
L 2766 531 
Q 2569 213 2275 61 
Q 1981 -91 1556 -91 
Q 1019 -91 701 211 
Q 384 513 384 1019 
Q 384 1609 779 1909 
Q 1175 2209 1959 2209 
L 2766 2209 
L 2766 2266 
Q 2766 2663 2505 2880 
Q 2244 3097 1772 3097 
Q 1472 3097 1187 3025 
Q 903 2953 641 2809 
L 641 3341 
Q 956 3463 1253 3523 
Q 1550 3584 1831 3584 
Q 2591 3584 2966 3190 
Q 3341 2797 3341 1997 
z
" transform="scale(0.015625)"/>
       <path id="DejaVuSans-69" d="M 603 3500 
L 1178 3500 
L 1178 0 
L 603 0 
L 603 3500 
z
M 603 4863 
L 1178 4863 
L 1178 4134 
L 603 4134 
L 603 4863 
z
" transform="scale(0.015625)"/>
       <path id="DejaVuSans-6e" d="M 3513 2113 
L 3513 0 
L 2938 0 
L 2938 2094 
Q 2938 2591 2744 2837 
Q 2550 3084 2163 3084 
Q 1697 3084 1428 2787 
Q 1159 2491 1159 1978 
L 1159 0 
L 581 0 
L 581 3500 
L 1159 3500 
L 1159 2956 
Q 1366 3272 1645 3428 
Q 1925 3584 2291 3584 
Q 2894 3584 3203 3211 
Q 3513 2838 3513 2113 
z
" transform="scale(0.015625)"/>
       <path id="DejaVuSans-67" d="M 2906 1791 
Q 2906 2416 2648 2759 
Q 2391 3103 1925 3103 
Q 1463 3103 1205 2759 
Q 947 2416 947 1791 
Q 947 1169 1205 825 
Q 1463 481 1925 481 
Q 2391 481 2648 825 
Q 2906 1169 2906 1791 
z
M 3481 434 
Q 3481 -459 3084 -895 
Q 2688 -1331 1869 -1331 
Q 1566 -1331 1297 -1286 
Q 1028 -1241 775 -1147 
L 775 -588 
Q 1028 -725 1275 -790 
Q 1522 -856 1778 -856 
Q 2344 -856 2625 -561 
Q 2906 -266 2906 331 
L 2906 616 
Q 2728 306 2450 153 
Q 2172 0 1784 0 
Q 1141 0 747 490 
Q 353 981 353 1791 
Q 353 2603 747 3093 
Q 1141 3584 1784 3584 
Q 2172 3584 2450 3431 
Q 2728 3278 2906 2969 
L 2906 3500 
L 3481 3500 
L 3481 434 
z
" transform="scale(0.015625)"/>
       <path id="DejaVuSans-20" transform="scale(0.015625)"/>
       <path id="DejaVuSans-4c" d="M 628 4666 
L 1259 4666 
L 1259 531 
L 3531 531 
L 3531 0 
L 628 0 
L 628 4666 
z
" transform="scale(0.015625)"/>
       <path id="DejaVuSans-73" d="M 2834 3397 
L 2834 2853 
Q 2591 2978 2328 3040 
Q 2066 3103 1784 3103 
Q 1356 3103 1142 2972 
Q 928 2841 928 2578 
Q 928 2378 1081 2264 
Q 1234 2150 1697 2047 
L 1894 2003 
Q 2506 1872 2764 1633 
Q 3022 1394 3022 966 
Q 3022 478 2636 193 
Q 2250 -91 1575 -91 
Q 1294 -91 989 -36 
Q 684 19 347 128 
L 347 722 
Q 666 556 975 473 
Q 1284 391 1588 391 
Q 1994 391 2212 530 
Q 2431 669 2431 922 
Q 2431 1156 2273 1281 
Q 2116 1406 1581 1522 
L 1381 1569 
Q 847 1681 609 1914 
Q 372 2147 372 2553 
Q 372 3047 722 3315 
Q 1072 3584 1716 3584 
Q 2034 3584 2315 3537 
Q 2597 3491 2834 3397 
z
" transform="scale(0.015625)"/>
      </defs>
      <use xlink:href="#DejaVuSans-54"/>
      <use xlink:href="#DejaVuSans-72" x="46.333984"/>
      <use xlink:href="#DejaVuSans-61" x="87.447266"/>
      <use xlink:href="#DejaVuSans-69" x="148.726562"/>
      <use xlink:href="#DejaVuSans-6e" x="176.509766"/>
      <use xlink:href="#DejaVuSans-69" x="239.888672"/>
      <use xlink:href="#DejaVuSans-6e" x="267.671875"/>
      <use xlink:href="#DejaVuSans-67" x="331.050781"/>
      <use xlink:href="#DejaVuSans-20" x="394.527344"/>
      <use xlink:href="#DejaVuSans-4c" x="426.314453"/>
      <use xlink:href="#DejaVuSans-6f" x="480.277344"/>
      <use xlink:href="#DejaVuSans-73" x="541.458984"/>
      <use xlink:href="#DejaVuSans-73" x="593.558594"/>
     </g>
    </g>
   </g>
   <g id="LineCollection_1">
    <path d="M 71.327727 45.096897 
L 71.327727 45.096897 
" clip-path="url(#p6e3bc6ec80)" style="fill: none; stroke: #ff8c00; stroke-width: 1.5"/>
    <path d="M 87.54685 154.196563 
L 87.54685 154.196563 
" clip-path="url(#p6e3bc6ec80)" style="fill: none; stroke: #ff8c00; stroke-width: 1.5"/>
    <path d="M 103.765972 202.618282 
L 103.765972 202.618282 
" clip-path="url(#p6e3bc6ec80)" style="fill: none; stroke: #ff8c00; stroke-width: 1.5"/>
    <path d="M 119.985094 224.357429 
L 119.985094 224.357429 
" clip-path="url(#p6e3bc6ec80)" style="fill: none; stroke: #ff8c00; stroke-width: 1.5"/>
    <path d="M 136.204216 237.729719 
L 136.204216 237.729719 
" clip-path="url(#p6e3bc6ec80)" style="fill: none; stroke: #ff8c00; stroke-width: 1.5"/>
    <path d="M 152.423339 246.222377 
L 152.423339 246.222377 
" clip-path="url(#p6e3bc6ec80)" style="fill: none; stroke: #ff8c00; stroke-width: 1.5"/>
    <path d="M 168.642461 254.297629 
L 168.642461 254.297629 
" clip-path="url(#p6e3bc6ec80)" style="fill: none; stroke: #ff8c00; stroke-width: 1.5"/>
    <path d="M 184.861583 262.300402 
L 184.861583 262.300402 
" clip-path="url(#p6e3bc6ec80)" style="fill: none; stroke: #ff8c00; stroke-width: 1.5"/>
    <path d="M 201.080705 267.164784 
L 201.080705 267.164784 
" clip-path="url(#p6e3bc6ec80)" style="fill: none; stroke: #ff8c00; stroke-width: 1.5"/>
    <path d="M 217.299828 271.447403 
L 217.299828 271.447403 
" clip-path="url(#p6e3bc6ec80)" style="fill: none; stroke: #ff8c00; stroke-width: 1.5"/>
    <path d="M 233.51895 273.638424 
L 233.51895 273.638424 
" clip-path="url(#p6e3bc6ec80)" style="fill: none; stroke: #ff8c00; stroke-width: 1.5"/>
    <path d="M 249.738072 277.606485 
L 249.738072 277.606485 
" clip-path="url(#p6e3bc6ec80)" style="fill: none; stroke: #ff8c00; stroke-width: 1.5"/>
    <path d="M 265.957194 280.089781 
L 265.957194 280.089781 
" clip-path="url(#p6e3bc6ec80)" style="fill: none; stroke: #ff8c00; stroke-width: 1.5"/>
    <path d="M 282.176317 282.934385 
L 282.176317 282.934385 
" clip-path="url(#p6e3bc6ec80)" style="fill: none; stroke: #ff8c00; stroke-width: 1.5"/>
    <path d="M 298.395439 284.849614 
L 298.395439 284.849614 
" clip-path="url(#p6e3bc6ec80)" style="fill: none; stroke: #ff8c00; stroke-width: 1.5"/>
    <path d="M 314.614561 287.28081 
L 314.614561 287.28081 
" clip-path="url(#p6e3bc6ec80)" style="fill: none; stroke: #ff8c00; stroke-width: 1.5"/>
    <path d="M 330.833683 289.751914 
L 330.833683 289.751914 
" clip-path="url(#p6e3bc6ec80)" style="fill: none; stroke: #ff8c00; stroke-width: 1.5"/>
    <path d="M 347.052806 291.38043 
L 347.052806 291.38043 
" clip-path="url(#p6e3bc6ec80)" style="fill: none; stroke: #ff8c00; stroke-width: 1.5"/>
    <path d="M 363.271928 292.299212 
L 363.271928 292.299212 
" clip-path="url(#p6e3bc6ec80)" style="fill: none; stroke: #ff8c00; stroke-width: 1.5"/>
    <path d="M 379.49105 294.717587 
L 379.49105 294.717587 
" clip-path="url(#p6e3bc6ec80)" style="fill: none; stroke: #ff8c00; stroke-width: 1.5"/>
    <path d="M 395.710172 296.085411 
L 395.710172 296.085411 
" clip-path="url(#p6e3bc6ec80)" style="fill: none; stroke: #ff8c00; stroke-width: 1.5"/>
    <path d="M 411.929295 297.559421 
L 411.929295 297.559421 
" clip-path="url(#p6e3bc6ec80)" style="fill: none; stroke: #ff8c00; stroke-width: 1.5"/>
    <path d="M 428.148417 298.643745 
L 428.148417 298.643745 
" clip-path="url(#p6e3bc6ec80)" style="fill: none; stroke: #ff8c00; stroke-width: 1.5"/>
    <path d="M 444.367539 299.814797 
L 444.367539 299.814797 
" clip-path="url(#p6e3bc6ec80)" style="fill: none; stroke: #ff8c00; stroke-width: 1.5"/>
    <path d="M 460.586661 300.807299 
L 460.586661 300.807299 
" clip-path="url(#p6e3bc6ec80)" style="fill: none; stroke: #ff8c00; stroke-width: 1.5"/>
    <path d="M 476.805784 301.861928 
L 476.805784 301.861928 
" clip-path="url(#p6e3bc6ec80)" style="fill: none; stroke: #ff8c00; stroke-width: 1.5"/>
    <path d="M 493.024906 303.41011 
L 493.024906 303.41011 
" clip-path="url(#p6e3bc6ec80)" style="fill: none; stroke: #ff8c00; stroke-width: 1.5"/>
    <path d="M 509.244028 303.109159 
L 509.244028 303.109159 
" clip-path="url(#p6e3bc6ec80)" style="fill: none; stroke: #ff8c00; stroke-width: 1.5"/>
    <path d="M 525.46315 304.74 
L 525.46315 304.74 
" clip-path="url(#p6e3bc6ec80)" style="fill: none; stroke: #ff8c00; stroke-width: 1.5"/>
    <path d="M 541.682273 304.708661 
L 541.682273 304.708661 
" clip-path="url(#p6e3bc6ec80)" style="fill: none; stroke: #ff8c00; stroke-width: 1.5"/>
   </g>
   <g id="LineCollection_2">
    <path d="M 71.327727 38.74 
L 71.327727 38.74 
" clip-path="url(#p6e3bc6ec80)" style="fill: none; stroke: #008080; stroke-width: 1.5"/>
    <path d="M 87.54685 155.375692 
L 87.54685 155.375692 
" clip-path="url(#p6e3bc6ec80)" style="fill: none; stroke: #008080; stroke-width: 1.5"/>
    <path d="M 103.765972 203.800226 
L 103.765972 203.800226 
" clip-path="url(#p6e3bc6ec80)" style="fill: none; stroke: #008080; stroke-width: 1.5"/>
    <path d="M 119.985094 227.500511 
L 119.985094 227.500511 
" clip-path="url(#p6e3bc6ec80)" style="fill: none; stroke: #008080; stroke-width: 1.5"/>
    <path d="M 136.204216 238.680741 
L 136.204216 238.680741 
" clip-path="url(#p6e3bc6ec80)" style="fill: none; stroke: #008080; stroke-width: 1.5"/>
    <path d="M 152.423339 248.608628 
L 152.423339 248.608628 
" clip-path="url(#p6e3bc6ec80)" style="fill: none; stroke: #008080; stroke-width: 1.5"/>
    <path d="M 168.642461 254.581512 
L 168.642461 254.581512 
" clip-path="url(#p6e3bc6ec80)" style="fill: none; stroke: #008080; stroke-width: 1.5"/>
    <path d="M 184.861583 261.24797 
L 184.861583 261.24797 
" clip-path="url(#p6e3bc6ec80)" style="fill: none; stroke: #008080; stroke-width: 1.5"/>
    <path d="M 201.080705 265.383779 
L 201.080705 265.383779 
" clip-path="url(#p6e3bc6ec80)" style="fill: none; stroke: #008080; stroke-width: 1.5"/>
    <path d="M 217.299828 270.657379 
L 217.299828 270.657379 
" clip-path="url(#p6e3bc6ec80)" style="fill: none; stroke: #008080; stroke-width: 1.5"/>
    <path d="M 233.51895 274.825572 
L 233.51895 274.825572 
" clip-path="url(#p6e3bc6ec80)" style="fill: none; stroke: #008080; stroke-width: 1.5"/>
    <path d="M 249.738072 277.406229 
L 249.738072 277.406229 
" clip-path="url(#p6e3bc6ec80)" style="fill: none; stroke: #008080; stroke-width: 1.5"/>
    <path d="M 265.957194 279.877009 
L 265.957194 279.877009 
" clip-path="url(#p6e3bc6ec80)" style="fill: none; stroke: #008080; stroke-width: 1.5"/>
    <path d="M 282.176317 282.448979 
L 282.176317 282.448979 
" clip-path="url(#p6e3bc6ec80)" style="fill: none; stroke: #008080; stroke-width: 1.5"/>
    <path d="M 298.395439 284.933764 
L 298.395439 284.933764 
" clip-path="url(#p6e3bc6ec80)" style="fill: none; stroke: #008080; stroke-width: 1.5"/>
    <path d="M 314.614561 285.997312 
L 314.614561 285.997312 
" clip-path="url(#p6e3bc6ec80)" style="fill: none; stroke: #008080; stroke-width: 1.5"/>
    <path d="M 330.833683 289.122114 
L 330.833683 289.122114 
" clip-path="url(#p6e3bc6ec80)" style="fill: none; stroke: #008080; stroke-width: 1.5"/>
    <path d="M 347.052806 289.671504 
L 347.052806 289.671504 
" clip-path="url(#p6e3bc6ec80)" style="fill: none; stroke: #008080; stroke-width: 1.5"/>
    <path d="M 363.271928 291.294486 
L 363.271928 291.294486 
" clip-path="url(#p6e3bc6ec80)" style="fill: none; stroke: #008080; stroke-width: 1.5"/>
    <path d="M 379.49105 293.301493 
L 379.49105 293.301493 
" clip-path="url(#p6e3bc6ec80)" style="fill: none; stroke: #008080; stroke-width: 1.5"/>
    <path d="M 395.710172 294.844118 
L 395.710172 294.844118 
" clip-path="url(#p6e3bc6ec80)" style="fill: none; stroke: #008080; stroke-width: 1.5"/>
    <path d="M 411.929295 296.550187 
L 411.929295 296.550187 
" clip-path="url(#p6e3bc6ec80)" style="fill: none; stroke: #008080; stroke-width: 1.5"/>
    <path d="M 428.148417 296.772624 
L 428.148417 296.772624 
" clip-path="url(#p6e3bc6ec80)" style="fill: none; stroke: #008080; stroke-width: 1.5"/>
    <path d="M 444.367539 298.138164 
L 444.367539 298.138164 
" clip-path="url(#p6e3bc6ec80)" style="fill: none; stroke: #008080; stroke-width: 1.5"/>
    <path d="M 460.586661 299.319454 
L 460.586661 299.319454 
" clip-path="url(#p6e3bc6ec80)" style="fill: none; stroke: #008080; stroke-width: 1.5"/>
    <path d="M 476.805784 300.4597 
L 476.805784 300.4597 
" clip-path="url(#p6e3bc6ec80)" style="fill: none; stroke: #008080; stroke-width: 1.5"/>
    <path d="M 493.024906 301.719276 
L 493.024906 301.719276 
" clip-path="url(#p6e3bc6ec80)" style="fill: none; stroke: #008080; stroke-width: 1.5"/>
    <path d="M 509.244028 302.935352 
L 509.244028 302.935352 
" clip-path="url(#p6e3bc6ec80)" style="fill: none; stroke: #008080; stroke-width: 1.5"/>
    <path d="M 525.46315 302.300015 
L 525.46315 302.300015 
" clip-path="url(#p6e3bc6ec80)" style="fill: none; stroke: #008080; stroke-width: 1.5"/>
    <path d="M 541.682273 303.347187 
L 541.682273 303.347187 
" clip-path="url(#p6e3bc6ec80)" style="fill: none; stroke: #008080; stroke-width: 1.5"/>
   </g>
   <g id="LineCollection_3">
    <path d="M 71.327727 57.615415 
L 71.327727 57.615415 
" clip-path="url(#p6e3bc6ec80)" style="fill: none; stroke: #0000ff; stroke-width: 1.5"/>
    <path d="M 87.54685 152.709633 
L 87.54685 152.709633 
" clip-path="url(#p6e3bc6ec80)" style="fill: none; stroke: #0000ff; stroke-width: 1.5"/>
    <path d="M 103.765972 201.158483 
L 103.765972 201.158483 
" clip-path="url(#p6e3bc6ec80)" style="fill: none; stroke: #0000ff; stroke-width: 1.5"/>
    <path d="M 119.985094 225.052842 
L 119.985094 225.052842 
" clip-path="url(#p6e3bc6ec80)" style="fill: none; stroke: #0000ff; stroke-width: 1.5"/>
    <path d="M 136.204216 238.169845 
L 136.204216 238.169845 
" clip-path="url(#p6e3bc6ec80)" style="fill: none; stroke: #0000ff; stroke-width: 1.5"/>
    <path d="M 152.423339 247.77126 
L 152.423339 247.77126 
" clip-path="url(#p6e3bc6ec80)" style="fill: none; stroke: #0000ff; stroke-width: 1.5"/>
    <path d="M 168.642461 255.908265 
L 168.642461 255.908265 
" clip-path="url(#p6e3bc6ec80)" style="fill: none; stroke: #0000ff; stroke-width: 1.5"/>
    <path d="M 184.861583 261.455111 
L 184.861583 261.455111 
" clip-path="url(#p6e3bc6ec80)" style="fill: none; stroke: #0000ff; stroke-width: 1.5"/>
    <path d="M 201.080705 266.815039 
L 201.080705 266.815039 
" clip-path="url(#p6e3bc6ec80)" style="fill: none; stroke: #0000ff; stroke-width: 1.5"/>
    <path d="M 217.299828 270.505999 
L 217.299828 270.505999 
" clip-path="url(#p6e3bc6ec80)" style="fill: none; stroke: #0000ff; stroke-width: 1.5"/>
    <path d="M 233.51895 274.624401 
L 233.51895 274.624401 
" clip-path="url(#p6e3bc6ec80)" style="fill: none; stroke: #0000ff; stroke-width: 1.5"/>
    <path d="M 249.738072 276.636901 
L 249.738072 276.636901 
" clip-path="url(#p6e3bc6ec80)" style="fill: none; stroke: #0000ff; stroke-width: 1.5"/>
    <path d="M 265.957194 280.978058 
L 265.957194 280.978058 
" clip-path="url(#p6e3bc6ec80)" style="fill: none; stroke: #0000ff; stroke-width: 1.5"/>
    <path d="M 282.176317 282.958638 
L 282.176317 282.958638 
" clip-path="url(#p6e3bc6ec80)" style="fill: none; stroke: #0000ff; stroke-width: 1.5"/>
    <path d="M 298.395439 285.47507 
L 298.395439 285.47507 
" clip-path="url(#p6e3bc6ec80)" style="fill: none; stroke: #0000ff; stroke-width: 1.5"/>
    <path d="M 314.614561 287.788653 
L 314.614561 287.788653 
" clip-path="url(#p6e3bc6ec80)" style="fill: none; stroke: #0000ff; stroke-width: 1.5"/>
    <path d="M 330.833683 289.989044 
L 330.833683 289.989044 
" clip-path="url(#p6e3bc6ec80)" style="fill: none; stroke: #0000ff; stroke-width: 1.5"/>
    <path d="M 347.052806 291.134475 
L 347.052806 291.134475 
" clip-path="url(#p6e3bc6ec80)" style="fill: none; stroke: #0000ff; stroke-width: 1.5"/>
    <path d="M 363.271928 292.858232 
L 363.271928 292.858232 
" clip-path="url(#p6e3bc6ec80)" style="fill: none; stroke: #0000ff; stroke-width: 1.5"/>
    <path d="M 379.49105 294.136378 
L 379.49105 294.136378 
" clip-path="url(#p6e3bc6ec80)" style="fill: none; stroke: #0000ff; stroke-width: 1.5"/>
    <path d="M 395.710172 294.874413 
L 395.710172 294.874413 
" clip-path="url(#p6e3bc6ec80)" style="fill: none; stroke: #0000ff; stroke-width: 1.5"/>
    <path d="M 411.929295 296.56109 
L 411.929295 296.56109 
" clip-path="url(#p6e3bc6ec80)" style="fill: none; stroke: #0000ff; stroke-width: 1.5"/>
    <path d="M 428.148417 298.061419 
L 428.148417 298.061419 
" clip-path="url(#p6e3bc6ec80)" style="fill: none; stroke: #0000ff; stroke-width: 1.5"/>
    <path d="M 444.367539 299.797007 
L 444.367539 299.797007 
" clip-path="url(#p6e3bc6ec80)" style="fill: none; stroke: #0000ff; stroke-width: 1.5"/>
    <path d="M 460.586661 300.649478 
L 460.586661 300.649478 
" clip-path="url(#p6e3bc6ec80)" style="fill: none; stroke: #0000ff; stroke-width: 1.5"/>
    <path d="M 476.805784 301.136515 
L 476.805784 301.136515 
" clip-path="url(#p6e3bc6ec80)" style="fill: none; stroke: #0000ff; stroke-width: 1.5"/>
    <path d="M 493.024906 302.08561 
L 493.024906 302.08561 
" clip-path="url(#p6e3bc6ec80)" style="fill: none; stroke: #0000ff; stroke-width: 1.5"/>
    <path d="M 509.244028 303.617787 
L 509.244028 303.617787 
" clip-path="url(#p6e3bc6ec80)" style="fill: none; stroke: #0000ff; stroke-width: 1.5"/>
    <path d="M 525.46315 303.487314 
L 525.46315 303.487314 
" clip-path="url(#p6e3bc6ec80)" style="fill: none; stroke: #0000ff; stroke-width: 1.5"/>
    <path d="M 541.682273 304.596095 
L 541.682273 304.596095 
" clip-path="url(#p6e3bc6ec80)" style="fill: none; stroke: #0000ff; stroke-width: 1.5"/>
   </g>
   <g id="LineCollection_4">
    <path d="M 71.327727 40.080504 
L 71.327727 40.080504 
" clip-path="url(#p6e3bc6ec80)" style="fill: none; stroke: #000000; stroke-width: 1.5"/>
    <path d="M 87.54685 153.132448 
L 87.54685 153.132448 
" clip-path="url(#p6e3bc6ec80)" style="fill: none; stroke: #000000; stroke-width: 1.5"/>
    <path d="M 103.765972 199.672537 
L 103.765972 199.672537 
" clip-path="url(#p6e3bc6ec80)" style="fill: none; stroke: #000000; stroke-width: 1.5"/>
    <path d="M 119.985094 224.476453 
L 119.985094 224.476453 
" clip-path="url(#p6e3bc6ec80)" style="fill: none; stroke: #000000; stroke-width: 1.5"/>
    <path d="M 136.204216 236.734484 
L 136.204216 236.734484 
" clip-path="url(#p6e3bc6ec80)" style="fill: none; stroke: #000000; stroke-width: 1.5"/>
    <path d="M 152.423339 248.570585 
L 152.423339 248.570585 
" clip-path="url(#p6e3bc6ec80)" style="fill: none; stroke: #000000; stroke-width: 1.5"/>
    <path d="M 168.642461 255.575316 
L 168.642461 255.575316 
" clip-path="url(#p6e3bc6ec80)" style="fill: none; stroke: #000000; stroke-width: 1.5"/>
    <path d="M 184.861583 261.734228 
L 184.861583 261.734228 
" clip-path="url(#p6e3bc6ec80)" style="fill: none; stroke: #000000; stroke-width: 1.5"/>
    <path d="M 201.080705 266.306755 
L 201.080705 266.306755 
" clip-path="url(#p6e3bc6ec80)" style="fill: none; stroke: #000000; stroke-width: 1.5"/>
    <path d="M 217.299828 269.246622 
L 217.299828 269.246622 
" clip-path="url(#p6e3bc6ec80)" style="fill: none; stroke: #000000; stroke-width: 1.5"/>
    <path d="M 233.51895 272.775149 
L 233.51895 272.775149 
" clip-path="url(#p6e3bc6ec80)" style="fill: none; stroke: #000000; stroke-width: 1.5"/>
    <path d="M 249.738072 277.571149 
L 249.738072 277.571149 
" clip-path="url(#p6e3bc6ec80)" style="fill: none; stroke: #000000; stroke-width: 1.5"/>
    <path d="M 265.957194 280.035669 
L 265.957194 280.035669 
" clip-path="url(#p6e3bc6ec80)" style="fill: none; stroke: #000000; stroke-width: 1.5"/>
    <path d="M 282.176317 282.68786 
L 282.176317 282.68786 
" clip-path="url(#p6e3bc6ec80)" style="fill: none; stroke: #000000; stroke-width: 1.5"/>
    <path d="M 298.395439 284.761802 
L 298.395439 284.761802 
" clip-path="url(#p6e3bc6ec80)" style="fill: none; stroke: #000000; stroke-width: 1.5"/>
    <path d="M 314.614561 286.908917 
L 314.614561 286.908917 
" clip-path="url(#p6e3bc6ec80)" style="fill: none; stroke: #000000; stroke-width: 1.5"/>
    <path d="M 330.833683 289.024076 
L 330.833683 289.024076 
" clip-path="url(#p6e3bc6ec80)" style="fill: none; stroke: #000000; stroke-width: 1.5"/>
    <path d="M 347.052806 289.036551 
L 347.052806 289.036551 
" clip-path="url(#p6e3bc6ec80)" style="fill: none; stroke: #000000; stroke-width: 1.5"/>
    <path d="M 363.271928 292.415964 
L 363.271928 292.415964 
" clip-path="url(#p6e3bc6ec80)" style="fill: none; stroke: #000000; stroke-width: 1.5"/>
    <path d="M 379.49105 292.989978 
L 379.49105 292.989978 
" clip-path="url(#p6e3bc6ec80)" style="fill: none; stroke: #000000; stroke-width: 1.5"/>
    <path d="M 395.710172 294.106269 
L 395.710172 294.106269 
" clip-path="url(#p6e3bc6ec80)" style="fill: none; stroke: #000000; stroke-width: 1.5"/>
    <path d="M 411.929295 295.771619 
L 411.929295 295.771619 
" clip-path="url(#p6e3bc6ec80)" style="fill: none; stroke: #000000; stroke-width: 1.5"/>
    <path d="M 428.148417 297.072537 
L 428.148417 297.072537 
" clip-path="url(#p6e3bc6ec80)" style="fill: none; stroke: #000000; stroke-width: 1.5"/>
    <path d="M 444.367539 297.693919 
L 444.367539 297.693919 
" clip-path="url(#p6e3bc6ec80)" style="fill: none; stroke: #000000; stroke-width: 1.5"/>
    <path d="M 460.586661 298.397491 
L 460.586661 298.397491 
" clip-path="url(#p6e3bc6ec80)" style="fill: none; stroke: #000000; stroke-width: 1.5"/>
    <path d="M 476.805784 300.237697 
L 476.805784 300.237697 
" clip-path="url(#p6e3bc6ec80)" style="fill: none; stroke: #000000; stroke-width: 1.5"/>
    <path d="M 493.024906 300.995939 
L 493.024906 300.995939 
" clip-path="url(#p6e3bc6ec80)" style="fill: none; stroke: #000000; stroke-width: 1.5"/>
    <path d="M 509.244028 301.648591 
L 509.244028 301.648591 
" clip-path="url(#p6e3bc6ec80)" style="fill: none; stroke: #000000; stroke-width: 1.5"/>
    <path d="M 525.46315 302.138519 
L 525.46315 302.138519 
" clip-path="url(#p6e3bc6ec80)" style="fill: none; stroke: #000000; stroke-width: 1.5"/>
    <path d="M 541.682273 303.153609 
L 541.682273 303.153609 
" clip-path="url(#p6e3bc6ec80)" style="fill: none; stroke: #000000; stroke-width: 1.5"/>
   </g>
   <g id="line2d_29">
    <path d="M 71.327727 45.096897 
L 87.54685 154.196563 
L 103.765972 202.618282 
L 119.985094 224.357429 
L 136.204216 237.729719 
L 152.423339 246.222377 
L 168.642461 254.297629 
L 184.861583 262.300402 
L 201.080705 267.164784 
L 217.299828 271.447403 
L 233.51895 273.638424 
L 249.738072 277.606485 
L 265.957194 280.089781 
L 282.176317 282.934385 
L 298.395439 284.849614 
L 314.614561 287.28081 
L 330.833683 289.751914 
L 347.052806 291.38043 
L 363.271928 292.299212 
L 379.49105 294.717587 
L 395.710172 296.085411 
L 411.929295 297.559421 
L 428.148417 298.643745 
L 444.367539 299.814797 
L 460.586661 300.807299 
L 476.805784 301.861928 
L 493.024906 303.41011 
L 509.244028 303.109159 
L 525.46315 304.74 
L 541.682273 304.708661 
" clip-path="url(#p6e3bc6ec80)" style="fill: none; stroke: #ff8c00; stroke-width: 1.5; stroke-linecap: square"/>
   </g>
   <g id="line2d_30">
    <path d="M 71.327727 38.74 
L 87.54685 155.375692 
L 103.765972 203.800226 
L 119.985094 227.500511 
L 136.204216 238.680741 
L 152.423339 248.608628 
L 168.642461 254.581512 
L 184.861583 261.24797 
L 201.080705 265.383779 
L 217.299828 270.657379 
L 233.51895 274.825572 
L 249.738072 277.406229 
L 265.957194 279.877009 
L 282.176317 282.448979 
L 298.395439 284.933764 
L 314.614561 285.997312 
L 330.833683 289.122114 
L 347.052806 289.671504 
L 363.271928 291.294486 
L 379.49105 293.301493 
L 395.710172 294.844118 
L 411.929295 296.550187 
L 428.148417 296.772624 
L 444.367539 298.138164 
L 460.586661 299.319454 
L 476.805784 300.4597 
L 493.024906 301.719276 
L 509.244028 302.935352 
L 525.46315 302.300015 
L 541.682273 303.347187 
" clip-path="url(#p6e3bc6ec80)" style="fill: none; stroke-dasharray: 5.55,2.4; stroke-dashoffset: 0; stroke: #008080; stroke-width: 1.5"/>
   </g>
   <g id="line2d_31">
    <path d="M 71.327727 57.615415 
L 87.54685 152.709633 
L 103.765972 201.158483 
L 119.985094 225.052842 
L 136.204216 238.169845 
L 152.423339 247.77126 
L 168.642461 255.908265 
L 184.861583 261.455111 
L 201.080705 266.815039 
L 217.299828 270.505999 
L 233.51895 274.624401 
L 249.738072 276.636901 
L 265.957194 280.978058 
L 282.176317 282.958638 
L 298.395439 285.47507 
L 314.614561 287.788653 
L 330.833683 289.989044 
L 347.052806 291.134475 
L 363.271928 292.858232 
L 379.49105 294.136378 
L 395.710172 294.874413 
L 411.929295 296.56109 
L 428.148417 298.061419 
L 444.367539 299.797007 
L 460.586661 300.649478 
L 476.805784 301.136515 
L 493.024906 302.08561 
L 509.244028 303.617787 
L 525.46315 303.487314 
L 541.682273 304.596095 
" clip-path="url(#p6e3bc6ec80)" style="fill: none; stroke-dasharray: 5.55,2.4; stroke-dashoffset: 0; stroke: #0000ff; stroke-width: 1.5"/>
   </g>
   <g id="line2d_32">
    <path d="M 71.327727 40.080504 
L 87.54685 153.132448 
L 103.765972 199.672537 
L 119.985094 224.476453 
L 136.204216 236.734484 
L 152.423339 248.570585 
L 168.642461 255.575316 
L 184.861583 261.734228 
L 201.080705 266.306755 
L 217.299828 269.246622 
L 233.51895 272.775149 
L 249.738072 277.571149 
L 265.957194 280.035669 
L 282.176317 282.68786 
L 298.395439 284.761802 
L 314.614561 286.908917 
L 330.833683 289.024076 
L 347.052806 289.036551 
L 363.271928 292.415964 
L 379.49105 292.989978 
L 395.710172 294.106269 
L 411.929295 295.771619 
L 428.148417 297.072537 
L 444.367539 297.693919 
L 460.586661 298.397491 
L 476.805784 300.237697 
L 493.024906 300.995939 
L 509.244028 301.648591 
L 525.46315 302.138519 
L 541.682273 303.153609 
" clip-path="url(#p6e3bc6ec80)" style="fill: none; stroke-dasharray: 5.55,2.4; stroke-dashoffset: 0; stroke: #000000; stroke-width: 1.5"/>
   </g>
   <g id="patch_3">
    <path d="M 47.81 318.04 
L 47.81 25.44 
" style="fill: none; stroke: #000000; stroke-width: 0.8; stroke-linejoin: miter; stroke-linecap: square"/>
   </g>
   <g id="patch_4">
    <path d="M 565.2 318.04 
L 565.2 25.44 
" style="fill: none; stroke: #000000; stroke-width: 0.8; stroke-linejoin: miter; stroke-linecap: square"/>
   </g>
   <g id="patch_5">
    <path d="M 47.81 318.04 
L 565.2 318.04 
" style="fill: none; stroke: #000000; stroke-width: 0.8; stroke-linejoin: miter; stroke-linecap: square"/>
   </g>
   <g id="patch_6">
    <path d="M 47.81 25.44 
L 565.2 25.44 
" style="fill: none; stroke: #000000; stroke-width: 0.8; stroke-linejoin: miter; stroke-linecap: square"/>
   </g>
   <g id="text_17">
    <!-- Training Loss vs. Epochs -->
    <g transform="translate(233.870312 19.44) scale(0.12 -0.12)">
     <defs>
      <path id="DejaVuSans-76" d="M 191 3500 
L 800 3500 
L 1894 563 
L 2988 3500 
L 3597 3500 
L 2284 0 
L 1503 0 
L 191 3500 
z
" transform="scale(0.015625)"/>
     </defs>
     <use xlink:href="#DejaVuSans-54"/>
     <use xlink:href="#DejaVuSans-72" x="46.333984"/>
     <use xlink:href="#DejaVuSans-61" x="87.447266"/>
     <use xlink:href="#DejaVuSans-69" x="148.726562"/>
     <use xlink:href="#DejaVuSans-6e" x="176.509766"/>
     <use xlink:href="#DejaVuSans-69" x="239.888672"/>
     <use xlink:href="#DejaVuSans-6e" x="267.671875"/>
     <use xlink:href="#DejaVuSans-67" x="331.050781"/>
     <use xlink:href="#DejaVuSans-20" x="394.527344"/>
     <use xlink:href="#DejaVuSans-4c" x="426.314453"/>
     <use xlink:href="#DejaVuSans-6f" x="480.277344"/>
     <use xlink:href="#DejaVuSans-73" x="541.458984"/>
     <use xlink:href="#DejaVuSans-73" x="593.558594"/>
     <use xlink:href="#DejaVuSans-20" x="645.658203"/>
     <use xlink:href="#DejaVuSans-76" x="677.445312"/>
     <use xlink:href="#DejaVuSans-73" x="736.625"/>
     <use xlink:href="#DejaVuSans-2e" x="788.724609"/>
     <use xlink:href="#DejaVuSans-20" x="820.511719"/>
     <use xlink:href="#DejaVuSans-45" x="852.298828"/>
     <use xlink:href="#DejaVuSans-70" x="915.482422"/>
     <use xlink:href="#DejaVuSans-6f" x="978.958984"/>
     <use xlink:href="#DejaVuSans-63" x="1040.140625"/>
     <use xlink:href="#DejaVuSans-68" x="1095.121094"/>
     <use xlink:href="#DejaVuSans-73" x="1158.5"/>
    </g>
   </g>
  </g>
 </g>
 <defs>
  <clipPath id="p6e3bc6ec80">
   <rect x="47.81" y="25.44" width="517.39" height="292.6"/>
  </clipPath>
 </defs>
</svg>
